<?xml version="1.0" encoding="UTF-8"?> <!-- Generator: Adobe Illustrator 16.0.0, SVG Export Plug-In . SVG Version: 6.00 Build 0) --> <svg xmlns="http://www.w3.org/2000/svg" xmlns:xlink="http://www.w3.org/1999/xlink" id="Layer_1" x="0px" y="0px" width="400px" height="161.5px" viewBox="0 0 400 161.5" xml:space="preserve"> <g> <g> <linearGradient id="SVGID_1_" gradientUnits="userSpaceOnUse" x1="82.4194" y1="3.8594" x2="437.7704" y2="3.8594" gradientTransform="matrix(1 0 0 -1 -50 57)"> <stop offset="0" style="stop-color:#F1592A"></stop> <stop offset="1" style="stop-color:#D2118B"></stop> </linearGradient> <path fill="url(#SVGID_1_)" d="M105.959,98.113H87.972l-8.224-16.061L60.085,43.503l-19.66,38.549l-8.224,16.063H14.214 l8.224-16.063L60.085,8.167l37.65,73.886L105.959,98.113z"></path> <linearGradient id="SVGID_2_" gradientUnits="userSpaceOnUse" x1="82.4199" y1="3.8594" x2="437.7696" y2="3.8594" gradientTransform="matrix(1 0 0 -1 -50 57)"> <stop offset="0" style="stop-color:#F1592A"></stop> <stop offset="1" style="stop-color:#D2118B"></stop> </linearGradient> <path fill="url(#SVGID_2_)" d="M193.721,8.167v44.975c0,24.799-20.175,44.973-44.976,44.973 c-24.798,0-44.973-20.174-44.973-44.973V8.167h16.062v44.975c0,15.933,12.979,28.912,28.911,28.912 c15.936,0,28.914-12.979,28.914-28.912V8.167H193.721z"></path> <linearGradient id="SVGID_3_" gradientUnits="userSpaceOnUse" x1="82.416" y1="3.7319" x2="437.7713" y2="3.7319" gradientTransform="matrix(1 0 0 -1 -50 57)"> <stop offset="0" style="stop-color:#F1592A"></stop> <stop offset="1" style="stop-color:#D2118B"></stop> </linearGradient> <path fill="url(#SVGID_3_)" d="M296.389,8.293v16.062h-36.881v73.887h-16.063V24.355h-36.879V8.293H296.389z"></path> <linearGradient id="SVGID_4_" gradientUnits="userSpaceOnUse" x1="82.4194" y1="3.8604" x2="437.7693" y2="3.8604" gradientTransform="matrix(1 0 0 -1 -50 57)"> <stop offset="0" style="stop-color:#F1592A"></stop> <stop offset="1" style="stop-color:#D2118B"></stop> </linearGradient> <path fill="url(#SVGID_4_)" d="M387.744,53.141c0,24.799-20.172,44.973-44.973,44.973c-24.802,0-44.975-20.174-44.975-44.973 c0-24.801,20.173-44.975,44.975-44.975C367.572,8.166,387.744,28.339,387.744,53.141z M371.683,53.141 c0-15.935-12.977-28.912-28.91-28.912S313.86,37.206,313.86,53.141c0,15.933,12.979,28.912,28.912,28.912 S371.683,69.074,371.683,53.141z"></path> </g> <g> <path fill="#5F6062" d="M38.558,153.232h-7.195l-3.289-6.424l-7.863-15.418l-7.862,15.418l-3.289,6.424H1.865l3.289-6.424 l15.057-29.551l15.058,29.551L38.558,153.232z"></path> <path fill="#5F6062" d="M66.416,127.229v-0.205c0-1.799-1.49-3.289-3.289-3.289H48.533c-1.799,0-3.289,1.49-3.289,3.289v0.205 c0,1.799,1.49,3.289,3.289,3.289h12.95c3.34,0,6.32,1.439,8.377,3.699c0.153,0.154,0.256,0.309,0.411,0.465 c1.593,1.951,2.569,4.471,2.569,7.193c0,6.27-5.087,11.357-11.357,11.357H50.229c-6.271,0-11.358-5.088-11.358-11.357h6.423 c0,2.725,2.21,4.934,4.935,4.934h11.254c2.724,0,4.985-2.209,4.985-4.934s-2.261-4.934-4.985-4.934h-12.95 c-2.622,0-4.985-1.027-6.732-2.725c-0.462-0.463-0.875-0.979-1.234-1.541c-1.079-1.543-1.696-3.443-1.696-5.5v-0.205 c0-5.346,4.317-9.713,9.662-9.713h14.595c5.344,0,9.712,4.367,9.712,9.713v0.205L66.416,127.229z"></path> <path fill="#5F6062" d="M105.582,127.229v-0.205c0-1.799-1.49-3.289-3.289-3.289H87.698c-1.799,0-3.289,1.49-3.289,3.289v0.205 c0,1.799,1.49,3.289,3.289,3.289h12.95c3.341,0,6.321,1.439,8.377,3.699c0.153,0.154,0.256,0.309,0.411,0.465 c1.593,1.951,2.569,4.471,2.569,7.193c0,6.27-5.086,11.357-11.357,11.357H89.393c-6.269,0-11.357-5.088-11.357-11.357h6.425 c0,2.725,2.208,4.934,4.932,4.934h11.255c2.724,0,4.985-2.209,4.985-4.934s-2.261-4.934-4.985-4.934h-12.95 c-2.622,0-4.985-1.027-6.732-2.725c-0.462-0.463-0.875-0.979-1.234-1.541c-1.079-1.543-1.696-3.443-1.696-5.5v-0.205 c0-5.346,4.316-9.713,9.662-9.713h14.594c5.344,0,9.712,4.367,9.712,9.713v0.205L105.582,127.229z"></path> <path fill="#5F6062" d="M117.148,153.232v-35.975h6.425v35.975H117.148z"></path> <path fill="#5F6062" d="M156.31,127.229v-0.205c0-1.799-1.49-3.289-3.289-3.289h-14.594c-1.799,0-3.289,1.49-3.289,3.289v0.205 c0,1.799,1.49,3.289,3.289,3.289h12.95c3.34,0,6.32,1.439,8.377,3.699c0.153,0.154,0.256,0.309,0.411,0.465 c1.593,1.951,2.569,4.471,2.569,7.193c0,6.27-5.087,11.357-11.357,11.357h-11.254c-6.27,0-11.358-5.088-11.358-11.357h6.423 c0,2.725,2.209,4.934,4.935,4.934h11.254c2.724,0,4.985-2.209,4.985-4.934s-2.261-4.934-4.985-4.934h-12.95 c-2.622,0-4.985-1.027-6.732-2.725c-0.462-0.463-0.875-0.979-1.234-1.541c-1.079-1.543-1.696-3.443-1.696-5.5v-0.205 c0-5.346,4.316-9.713,9.662-9.713h14.594c5.344,0,9.712,4.367,9.712,9.713v0.205L156.31,127.229z"></path> <path fill="#5F6062" d="M202.105,117.311v6.424h-14.75v29.549h-6.425v-29.549h-14.749v-6.424H202.105z"></path> <path fill="#5F6062" d="M213.725,135.246c0,6.371,5.19,11.563,11.563,11.563h11.563v-6.887h-11.563v-6.424h17.986v19.734h-17.986 c-9.917,0-17.988-8.068-17.988-17.986c0-9.92,8.071-17.988,17.988-17.988h17.986v6.426h-17.986 C218.915,123.684,213.725,128.871,213.725,135.246z"></path> <path fill="#5F6062" d="M277.454,146.912l3.289,6.422h-7.196l-3.289-6.422l-3.441-6.734l-0.153-0.309 c-1.131-1.85-3.136-3.082-5.447-3.082h-6.425v16.547h-6.425v-35.973h22.717c2.671,0,5.088,1.078,6.834,2.826 s2.827,4.162,2.827,6.836c0,3.904-2.313,7.295-5.653,8.838c-0.875,0.412-1.8,0.668-2.774,0.771L277.454,146.912z M271.082,130.363 c0.462,0,0.925-0.104,1.337-0.311c1.181-0.514,1.952-1.695,1.952-2.979c0-1.182-0.618-2.006-0.979-2.365 c-0.412-0.41-1.181-0.924-2.312-0.924H254.79v6.629L271.082,130.363z"></path> <path fill="#5F6062" d="M320.678,135.246c0,9.918-8.066,17.986-17.984,17.986c-9.92,0-17.987-8.068-17.987-17.986 c0-9.92,8.067-17.988,17.987-17.988C312.61,117.258,320.678,125.326,320.678,135.246z M314.256,135.246 c0-6.375-5.189-11.563-11.563-11.563c-6.375,0-11.563,5.188-11.563,11.563c0,6.371,5.188,11.563,11.563,11.563 C309.065,146.809,314.256,141.617,314.256,135.246z"></path> <path fill="#5F6062" d="M360.563,117.258v17.988c0,9.918-8.067,17.986-17.986,17.986c-9.918,0-17.985-8.068-17.985-17.986v-17.988 h6.425v17.988c0,6.371,5.188,11.563,11.562,11.563c6.374,0,11.563-5.191,11.563-11.563v-17.988H360.563z"></path> <path fill="#5F6062" d="M395.308,120.135c1.749,1.801,2.827,4.217,2.827,6.889c0,3.904-2.312,7.297-5.652,8.84 c-0.872,0.41-1.798,0.666-2.774,0.77c-0.103,0-0.206,0-0.309,0v0.053h-17.218v16.549h-6.422V117.26h22.664 c2.671,0,5.088,1.078,6.834,2.826L395.308,120.135z M389.811,129.951c1.182-0.514,1.952-1.695,1.952-2.979 c0-1.184-0.614-2.006-0.975-2.365c-0.412-0.41-1.185-0.924-2.314-0.924h-16.292v6.629h16.292c0.462,0,0.926-0.104,1.337-0.311 V129.951z"></path> </g> </g> </svg> 