<?xml version="1.0" encoding="utf-8"?>
<!-- Generator: Adobe Illustrator 28.0.0, SVG Export Plug-In . SVG Version: 6.00 Build 0)  -->
<svg version="1.1" id="Layer_1" xmlns="http://www.w3.org/2000/svg" xmlns:xlink="http://www.w3.org/1999/xlink" x="0px" y="0px"
	 width="37px" height="30px" viewBox="0 0 37 30" enable-background="new 0 0 37 30" xml:space="preserve">
<g>
	<path fill-rule="evenodd" clip-rule="evenodd" fill="#F08122" d="M13.212,1.014h5.877V0.6h-5.877
		C13.212,0.6,13.212,1.014,13.212,1.014z"/>
	<path fill-rule="evenodd" clip-rule="evenodd" fill="#F08122" d="M13.212,2.204h5.877V1.531h-5.877
		C13.212,1.531,13.212,2.204,13.212,2.204z"/>
	<path fill-rule="evenodd" clip-rule="evenodd" fill="#F08122" d="M13.212,3.653h5.877V2.721h-5.877
		C13.212,2.721,13.212,3.653,13.212,3.653z"/>
	<path fill-rule="evenodd" clip-rule="evenodd" fill="#F08122" d="M13.212,5.36h5.877V4.17h-5.877
		C13.212,4.17,13.212,5.36,13.212,5.36z"/>
	<path fill-rule="evenodd" clip-rule="evenodd" fill="#F08122" d="M13.212,7.326h5.877V5.877h-5.877
		C13.212,5.877,13.212,7.326,13.212,7.326z"/>
	<path fill-rule="evenodd" clip-rule="evenodd" fill="#F08122" d="M13.212,9.552h5.877V7.843h-5.877
		C13.212,7.843,13.212,9.552,13.212,9.552z"/>
	<path fill-rule="evenodd" clip-rule="evenodd" fill="#F08122" d="M13.212,12.035h5.877v-1.967h-5.877
		C13.212,10.068,13.212,12.035,13.212,12.035z"/>
	<path fill-rule="evenodd" clip-rule="evenodd" fill="#F08122" d="M13.212,14.591H25.28v-2.039H13.212V14.591z"/>
	<path fill-rule="evenodd" clip-rule="evenodd" fill="#F08122" d="M13.212,17.147h5.877v-2.039h-5.877
		C13.212,15.108,13.212,17.147,13.212,17.147z"/>
	<path fill-rule="evenodd" clip-rule="evenodd" fill="#F08122" d="M13.212,19.703h5.877v-2.039h-5.877
		C13.212,17.664,13.212,19.703,13.212,19.703z"/>
	<path fill-rule="evenodd" clip-rule="evenodd" fill="#F08122" d="M13.212,22.258h5.877v-2.039h-5.877
		C13.212,20.219,13.212,22.258,13.212,22.258z"/>
	<path fill-rule="evenodd" clip-rule="evenodd" fill="#6D6E71" d="M25.256,5.008h-1.832c-0.26,0.004-0.465,0.03-0.721,0.078
		C22.6,5.106,22.46,5.135,22.36,5.164l-0.327,0.109c-0.244,0.092-0.529,0.237-0.746,0.383C21.1,5.782,20.94,5.908,20.778,6.065
		c-0.224,0.216-0.462,0.482-0.611,0.756c-0.239,0.439-0.356,0.871-0.368,1.371v3.837h1.956l-0.003-2.333V9.64L21.75,8.655V8.572
		l0.008-0.083l0.012-0.083l0.018-0.078l0.02-0.081l0.025-0.078l0.031-0.076l0.032-0.073l0.038-0.073l0.042-0.07l0.046-0.068
		l0.051-0.066l0.053-0.066l0.058-0.061l0.058-0.06l0.063-0.055c0.397-0.335,0.829-0.468,1.343-0.482h0.111h0.023h1.489l0.003-1.01
		V5.008H25.256z"/>
	<path fill-rule="evenodd" clip-rule="evenodd" fill="#6D6E71" d="M19.799,15.108v7.15h1.955l-0.001-4.277v-0.198l-0.002-2.675
		C21.751,15.108,19.799,15.108,19.799,15.108z"/>
	<path fill-rule="evenodd" clip-rule="evenodd" fill="#6D6E71" d="M12.502,5.008l-4.04,0.015L8.278,5.028L8.096,5.041L7.917,5.06
		L7.741,5.09L7.567,5.126L7.399,5.169L7.23,5.219L7.068,5.277L6.909,5.34L6.753,5.411L6.602,5.489L6.458,5.57L6.317,5.66
		L6.181,5.753L6.05,5.855L5.924,5.958L5.806,6.069L5.692,6.185L5.586,6.303l-0.1,0.126L5.392,6.557L5.304,6.688L5.226,6.827
		L5.153,6.966L5.087,7.109L5.032,7.258L4.984,7.407L4.944,7.56L4.911,7.717L4.888,7.875L4.873,8.034L4.868,8.198l-0.005,9.77
		c0,0.045,0,0.091,0,0.136c0,0.044,0,0.089,0,0.133c0,0.044,0.001,0.088,0.003,0.131c0.002,0.044,0.005,0.088,0.007,0.131
		c0.002,0.043,0.004,0.086,0.008,0.128c0.004,0.044,0.01,0.088,0.015,0.131c0.002,0.022,0.004,0.044,0.008,0.066
		c0.003,0.022,0.008,0.043,0.012,0.065c0.004,0.023,0.009,0.046,0.013,0.068c0.004,0.023,0.007,0.046,0.012,0.068
		c0.034,0.135,0.067,0.27,0.109,0.403c0.039,0.127,0.084,0.252,0.133,0.375c0.048,0.119,0.102,0.236,0.161,0.35
		c0.057,0.11,0.12,0.218,0.187,0.323c0.065,0.102,0.134,0.201,0.207,0.297c0.071,0.093,0.147,0.183,0.226,0.269
		c0.078,0.084,0.162,0.165,0.247,0.242c0.084,0.076,0.17,0.148,0.26,0.217c0.089,0.068,0.182,0.133,0.277,0.192
		c0.093,0.058,0.19,0.112,0.288,0.161s0.198,0.095,0.299,0.136c0.1,0.041,0.202,0.079,0.305,0.111
		c0.103,0.032,0.207,0.058,0.312,0.081c0.105,0.023,0.211,0.044,0.318,0.058c0.106,0.014,0.213,0.023,0.32,0.027
		c0.106,0.005,0.213,0.006,0.32,0.003c0.106-0.004,0.212-0.012,0.318-0.025s0.211-0.031,0.315-0.053
		c0.104-0.022,0.208-0.048,0.31-0.079s0.204-0.066,0.303-0.105c0.099-0.04,0.197-0.085,0.292-0.134
		c0.096-0.049,0.189-0.104,0.28-0.161c0.092-0.058,0.181-0.121,0.267-0.187c0.088-0.067,0.173-0.138,0.254-0.214
		c0.082-0.076,0.16-0.158,0.234-0.242c0.075-0.086,0.147-0.175,0.215-0.267c0.069-0.095,0.134-0.194,0.194-0.295
		c0.062-0.105,0.12-0.213,0.172-0.323c0.054-0.114,0.098-0.234,0.146-0.35c0.103-0.247,0.157-0.513,0.219-0.774
		c0.035-0.145,0.049-0.294,0.073-0.441v-6.071l-4.758-0.002v2.039h0.003v0.002h2.908v3.961c-0.015,0.067-0.027,0.135-0.045,0.202
		c-0.017,0.064-0.038,0.127-0.061,0.189c-0.021,0.059-0.045,0.118-0.07,0.176c-0.025,0.056-0.051,0.112-0.081,0.166
		c-0.028,0.052-0.058,0.103-0.091,0.152c-0.032,0.048-0.068,0.093-0.103,0.138c-0.035,0.044-0.07,0.088-0.109,0.129
		c-0.037,0.04-0.078,0.077-0.118,0.113c-0.04,0.036-0.081,0.071-0.124,0.104c-0.042,0.032-0.086,0.061-0.131,0.088
		c-0.044,0.028-0.09,0.054-0.137,0.078C9.54,20.107,9.494,20.13,9.447,20.15s-0.096,0.037-0.144,0.053
		c-0.049,0.016-0.098,0.031-0.148,0.043c-0.049,0.012-0.099,0.021-0.149,0.028s-0.101,0.013-0.151,0.017s-0.101,0.006-0.151,0.005
		c-0.05,0-0.101-0.003-0.151-0.008c-0.05-0.004-0.1-0.01-0.149-0.018c-0.05-0.008-0.1-0.018-0.149-0.03
		c-0.048-0.012-0.096-0.027-0.144-0.043c-0.047-0.016-0.095-0.033-0.141-0.053c-0.047-0.02-0.093-0.044-0.139-0.068
		C7.787,20.052,7.742,20.027,7.7,20c-0.044-0.028-0.087-0.058-0.128-0.09s-0.08-0.066-0.118-0.101
		c-0.039-0.036-0.08-0.07-0.113-0.111c-0.034-0.041-0.071-0.081-0.103-0.124c-0.034-0.044-0.066-0.089-0.096-0.136
		c-0.03-0.047-0.057-0.097-0.083-0.146c-0.027-0.052-0.053-0.105-0.076-0.159C6.96,19.078,6.94,19.021,6.92,18.964
		C6.912,18.946,6.906,18.923,6.9,18.9c-0.006-0.022-0.012-0.045-0.018-0.068s-0.012-0.046-0.018-0.068
		c-0.005-0.022-0.011-0.045-0.015-0.068c-0.004-0.023-0.007-0.046-0.01-0.068c-0.004-0.023-0.009-0.046-0.012-0.068
		c-0.003-0.021-0.005-0.043-0.008-0.065c-0.003-0.023-0.006-0.046-0.008-0.068c-0.004-0.045-0.007-0.091-0.01-0.136
		c-0.003-0.045-0.006-0.091-0.008-0.136c-0.002-0.046-0.003-0.092-0.003-0.139v-0.139V9.702V9.647L6.786,8.662l0.002-0.083
		l0.007-0.083l0.013-0.083l0.015-0.078l0.023-0.081l0.025-0.078L6.902,8.1l0.033-0.073l0.038-0.073l0.043-0.07l0.046-0.068
		l0.05-0.066l0.053-0.066L7.22,7.623l0.06-0.06l0.063-0.055l0.065-0.055l0.071-0.051l0.07-0.051l0.076-0.045L7.7,7.263l0.081-0.038
		l0.081-0.038l0.086-0.033l0.085-0.027l0.088-0.028l0.091-0.02l0.09-0.02l0.094-0.015l0.096-0.01l0.096-0.005l0.096-0.003h0.113
		h0.02h3.684V5.008H12.502z"/>
	<path fill-rule="evenodd" clip-rule="evenodd" fill="#6D6E71" d="M0.383,26.817h36.234v-0.355H0.383V26.817z"/>
	<path fill-rule="evenodd" clip-rule="evenodd" fill="#6D6E71" d="M30.203,29.372v-0.655l-0.696-1.175h0.59l0.403,0.787l0.403-0.787
		h0.519l-0.701,1.195v0.635H30.203z M28.417,29.372v-1.464h-0.555v-0.366h1.616v0.366h-0.554v1.464H28.417z M27.113,29.372v-1.83
		h0.504v1.83H27.113z M26.894,28.783V28.8v0.035l-0.002,0.033l-0.005,0.033l-0.005,0.033l-0.008,0.03l-0.01,0.03l-0.012,0.031
		l-0.013,0.027l-0.015,0.025l-0.015,0.028l-0.018,0.025l-0.02,0.023l-0.023,0.025l-0.023,0.02L26.7,29.221l-0.028,0.02l-0.028,0.02
		l-0.03,0.018l-0.033,0.015l-0.03,0.018l-0.035,0.012l-0.035,0.013l-0.035,0.012l-0.038,0.01l-0.04,0.01l-0.04,0.008l-0.043,0.007
		l-0.043,0.005l-0.045,0.005l-0.045,0.002L26.103,29.4h-0.048h-0.053l-0.051-0.003l-0.05-0.005l-0.048-0.008l-0.048-0.007
		l-0.045-0.01l-0.043-0.012l-0.042-0.013l-0.04-0.018l-0.038-0.017l-0.038-0.018l-0.038-0.023l-0.033-0.023l-0.033-0.025
		l-0.033-0.027l-0.03-0.028l-0.028-0.03L25.337,29.1l-0.023-0.033l-0.025-0.035l-0.02-0.035l-0.02-0.04l-0.016-0.038l-0.017-0.043
		l-0.013-0.04l-0.012-0.045l-0.01-0.046l-0.008-0.048l-0.008-0.048l-0.003-0.051l-0.005-0.053v-0.053v-0.058l0.005-0.058
		l0.003-0.055l0.008-0.053l0.008-0.05l0.01-0.05l0.012-0.048l0.015-0.048l0.015-0.043l0.018-0.043l0.02-0.042l0.02-0.038
		l0.025-0.038l0.025-0.035l0.025-0.035l0.03-0.031l0.03-0.03l0.033-0.03l0.033-0.025l0.035-0.025l0.038-0.023l0.04-0.02l0.04-0.018
		l0.043-0.018l0.043-0.013l0.045-0.012l0.048-0.012l0.051-0.007l0.05-0.008l0.053-0.005l0.053-0.003h0.055l0.091,0.003l0.088,0.005
		l0.04,0.008l0.04,0.005l0.038,0.008l0.035,0.01l0.038,0.01l0.032,0.01l0.033,0.013l0.033,0.015l0.031,0.015l0.027,0.015
		l0.028,0.018l0.027,0.02l0.023,0.018l0.025,0.023l0.02,0.02l0.02,0.025l0.02,0.023l0.018,0.025l0.015,0.027l0.015,0.025l0.012,0.03
		l0.01,0.028l0.01,0.033l0.008,0.03l0.007,0.033l0.005,0.036l0.005,0.035v0.035h-0.517l-0.003-0.028l-0.007-0.025l-0.008-0.025
		l-0.01-0.023l-0.012-0.023l-0.013-0.02l-0.017-0.018l-0.02-0.018l-0.02-0.015l-0.023-0.015l-0.025-0.01l-0.027-0.01l-0.028-0.008
		l-0.03-0.005l-0.03-0.003h-0.03l-0.045,0.003l-0.043,0.007l-0.02,0.005l-0.017,0.005l-0.02,0.008l-0.018,0.01l-0.018,0.01
		l-0.015,0.013l-0.015,0.012l-0.015,0.013l-0.015,0.015l-0.013,0.015l-0.015,0.018l-0.01,0.02l-0.023,0.04l-0.02,0.046l-0.018,0.05
		l-0.012,0.053l-0.01,0.06l-0.008,0.063l-0.005,0.068v0.073v0.068l0.005,0.063l0.008,0.06l0.01,0.053l0.015,0.05l0.015,0.046
		l0.02,0.043l0.023,0.038l0.025,0.033l0.028,0.03l0.015,0.012l0.018,0.01l0.015,0.01l0.018,0.01l0.038,0.015l0.04,0.01l0.043,0.008
		l0.045,0.002h0.033l0.033-0.005l0.028-0.005l0.03-0.008l0.025-0.01l0.025-0.01l0.023-0.015l0.02-0.015l0.02-0.018l0.018-0.02
		l0.015-0.023l0.01-0.023l0.01-0.025l0.008-0.025l0.008-0.027l0.003-0.03h0.519V28.783z M24.203,28.946v-0.421h0.829v0.421H24.203z
		 M23.976,28.783V28.8v0.035l-0.002,0.033l-0.005,0.033l-0.005,0.033l-0.008,0.03l-0.01,0.03l-0.012,0.031l-0.013,0.027
		l-0.015,0.025l-0.015,0.028l-0.018,0.025l-0.02,0.023l-0.023,0.025l-0.023,0.02l-0.025,0.023l-0.027,0.02l-0.028,0.02l-0.03,0.018
		l-0.03,0.015l-0.033,0.018l-0.035,0.012l-0.035,0.013l-0.035,0.012l-0.038,0.01l-0.04,0.01l-0.04,0.008l-0.043,0.007l-0.043,0.005
		l-0.045,0.005l-0.045,0.002l-0.05,0.004h-0.048h-0.053l-0.051-0.003l-0.051-0.005l-0.048-0.008l-0.048-0.007l-0.045-0.01
		l-0.043-0.012l-0.042-0.013l-0.04-0.018l-0.038-0.017l-0.038-0.018l-0.038-0.023l-0.033-0.023l-0.033-0.025l-0.033-0.027
		l-0.03-0.028l-0.028-0.03L22.418,29.1l-0.023-0.033l-0.025-0.035l-0.02-0.035l-0.018-0.04l-0.018-0.038l-0.018-0.043l-0.012-0.04
		l-0.012-0.045l-0.01-0.046l-0.008-0.048l-0.008-0.048l-0.003-0.051l-0.003-0.053l-0.002-0.053l0.002-0.058l0.003-0.058l0.003-0.055
		l0.008-0.053l0.008-0.05l0.01-0.05l0.012-0.048l0.015-0.048l0.015-0.043l0.018-0.043l0.02-0.042l0.02-0.038l0.025-0.038
		l0.025-0.035l0.025-0.035l0.03-0.031l0.03-0.03l0.033-0.03l0.033-0.025l0.035-0.025l0.038-0.023l0.04-0.02l0.04-0.018l0.043-0.018
		l0.042-0.013l0.046-0.012l0.048-0.012l0.051-0.007l0.05-0.008l0.053-0.005l0.053-0.003h0.055l0.091,0.003l0.088,0.005l0.04,0.008
		l0.04,0.005l0.038,0.008l0.035,0.01l0.038,0.01l0.033,0.01l0.033,0.013l0.033,0.015l0.03,0.015l0.028,0.015l0.028,0.018l0.027,0.02
		l0.023,0.018l0.025,0.023l0.02,0.02l0.02,0.025l0.02,0.023l0.018,0.025l0.015,0.027l0.015,0.025l0.012,0.03l0.01,0.028l0.01,0.033
		l0.007,0.03l0.007,0.033l0.005,0.036l0.005,0.035v0.035H23.45l-0.003-0.028l-0.008-0.025l-0.007-0.025l-0.01-0.023l-0.012-0.023
		l-0.013-0.02l-0.018-0.018l-0.02-0.018l-0.02-0.015l-0.023-0.015l-0.025-0.01l-0.027-0.01l-0.028-0.008l-0.03-0.005l-0.03-0.003
		h-0.033l-0.046,0.003l-0.043,0.007l-0.02,0.005l-0.018,0.005l-0.02,0.008l-0.018,0.01l-0.018,0.01l-0.015,0.013l-0.015,0.012
		l-0.015,0.013L22.9,27.974l-0.013,0.015l-0.015,0.018l-0.01,0.02l-0.023,0.04l-0.02,0.046l-0.018,0.05l-0.012,0.053l-0.01,0.06
		l-0.008,0.063l-0.005,0.068v0.073v0.068l0.005,0.063l0.008,0.06l0.01,0.053l0.015,0.05l0.015,0.046l0.02,0.043l0.023,0.038
		l0.025,0.033l0.028,0.03l0.015,0.012l0.018,0.01l0.015,0.01l0.018,0.01l0.038,0.015l0.04,0.01l0.043,0.008l0.045,0.002h0.033
		l0.033-0.005l0.028-0.005l0.03-0.008l0.025-0.01l0.025-0.01l0.023-0.015l0.02-0.015l0.02-0.018l0.018-0.02l0.015-0.023l0.01-0.023
		l0.01-0.025l0.008-0.025l0.007-0.027l0.003-0.03h0.521V28.783z M20.635,29.372v-1.83h1.348v0.353h-0.855v0.373h0.815v0.348h-0.815
		v0.391h0.88v0.365H20.635z M19.322,29.372v-1.464h-0.555v-0.366h1.616v0.366h-0.554v1.464H19.322z M16.668,29.347v-1.83h1.348
		v0.353h-0.854v0.373h0.814v0.348h-0.814v0.391h0.88v0.366L16.668,29.347L16.668,29.347z M16.467,28.758v0.017v0.035l-0.003,0.033
		l-0.005,0.033l-0.005,0.033l-0.01,0.03l-0.008,0.03l-0.012,0.028l-0.013,0.03l-0.015,0.025l-0.015,0.028l-0.02,0.025l-0.02,0.023
		l-0.02,0.023l-0.023,0.023l-0.028,0.023l-0.025,0.02l-0.03,0.02l-0.028,0.018l-0.033,0.015l-0.033,0.018L16.088,29.3l-0.035,0.013
		l-0.038,0.012l-0.038,0.01l-0.038,0.01l-0.04,0.007l-0.043,0.008l-0.042,0.005l-0.046,0.005l-0.045,0.002l-0.048,0.003h-0.048
		h-0.053l-0.053-0.003l-0.048-0.005l-0.048-0.007l-0.048-0.008l-0.046-0.01L15.29,29.33l-0.043-0.013l-0.04-0.018l-0.04-0.017
		l-0.038-0.018l-0.035-0.023l-0.035-0.023l-0.033-0.025l-0.03-0.028l-0.03-0.028l-0.028-0.03l-0.027-0.033l-0.025-0.033
		l-0.023-0.035l-0.02-0.035l-0.02-0.04l-0.018-0.038L14.79,28.85l-0.013-0.043l-0.012-0.043l-0.01-0.046l-0.007-0.048l-0.008-0.048
		l-0.005-0.051L14.73,28.52v-0.053V28.41l0.003-0.058l0.005-0.055l0.008-0.053l0.007-0.05l0.01-0.051l0.012-0.048l0.015-0.048
		l0.016-0.043l0.017-0.043l0.02-0.043l0.02-0.038l0.023-0.038l0.025-0.036l0.028-0.035l0.028-0.03l0.032-0.031l0.031-0.03
		l0.035-0.025L15.1,27.63l0.038-0.023l0.038-0.02l0.04-0.018l0.043-0.018l0.046-0.015l0.045-0.013l0.048-0.01l0.048-0.008
		l0.051-0.007l0.053-0.005l0.055-0.002h0.056h0.09l0.086,0.008l0.042,0.005l0.038,0.008l0.04,0.008l0.035,0.01l0.035,0.01
		l0.036,0.01l0.033,0.013l0.032,0.015l0.031,0.015l0.027,0.015l0.028,0.018l0.025,0.018l0.025,0.02l0.023,0.023l0.023,0.02
		l0.02,0.023l0.018,0.025l0.018,0.025l0.018,0.025l0.012,0.027l0.013,0.031l0.012,0.027l0.01,0.033l0.008,0.03l0.008,0.033
		l0.005,0.035l0.003,0.036l0.003,0.035H15.94l-0.005-0.027L15.93,28.04l-0.008-0.025l-0.01-0.023L15.9,27.969l-0.015-0.02
		l-0.015-0.018l-0.02-0.018l-0.023-0.015l-0.023-0.015l-0.025-0.01l-0.025-0.01l-0.028-0.008l-0.03-0.005l-0.03-0.003h-0.033
		l-0.045,0.003l-0.043,0.005l-0.02,0.008l-0.017,0.005l-0.02,0.008l-0.018,0.01l-0.017,0.01l-0.016,0.01l-0.015,0.013l-0.015,0.015
		l-0.015,0.015l-0.015,0.015l-0.013,0.018l-0.012,0.02l-0.023,0.04l-0.018,0.046l-0.018,0.051l-0.012,0.053l-0.01,0.06l-0.007,0.063
		l-0.005,0.068l-0.003,0.073l0.003,0.068l0.005,0.063l0.007,0.058l0.01,0.055l0.012,0.051l0.018,0.045l0.02,0.043l0.023,0.038
		l0.025,0.033l0.027,0.027l0.015,0.013l0.015,0.012l0.018,0.01l0.018,0.01l0.038,0.015l0.038,0.01l0.043,0.008l0.048,0.002
		l0.033-0.002l0.031-0.003l0.03-0.005l0.027-0.008l0.028-0.01l0.025-0.01l0.023-0.015l0.02-0.015l0.02-0.02l0.018-0.017l0.012-0.023
		l0.013-0.023l0.01-0.025l0.008-0.025l0.005-0.027l0.005-0.03h0.52V28.758z M12.588,29.372v-1.83h0.72l0.58,1.301v-1.301h0.434v1.83
		h-0.698l-0.595-1.343v1.343H12.588z M10.196,29.372l0.708-1.83h0.615l0.723,1.83h-0.567l-0.128-0.358h-0.718l-0.126,0.358H10.196z
		 M11.424,28.664l-0.232-0.761l-0.252,0.761H11.424z M8.271,29.372v-1.83h0.72l0.58,1.301v-1.301h0.433v1.83H9.307l-0.592-1.343
		v1.343H8.271z M7.354,29.372v-1.83H7.86v1.83H7.354z M5.706,29.372v-1.83h1.283v0.351H6.212v0.423h0.721v0.346H6.212v0.71H5.706z"
		/>
	<path fill-rule="evenodd" clip-rule="evenodd" fill="#6D6E71" d="M25.983,7.023V5.028V5.017l6.151-0.005v0.016v1.995v0.003h-2.101
		l0.002,5.402v0.434l0.001,9.396h-1.955V7.026h-2.098V7.023z"/>
	<path fill-rule="evenodd" clip-rule="evenodd" fill="#6D6E71" d="M35.239,25.822v-1.789h0.509v1.444h0.819v0.345H35.239z
		 M32.991,25.822l0.71-1.789h0.62l0.728,1.789h-0.572l-0.126-0.351h-0.726L33.5,25.822H32.991z M34.225,25.129l-0.232-0.746
		l-0.257,0.746H34.225z M31.101,25.796v-1.789h0.726l0.584,1.273v-1.273h0.436v1.789h-0.703l-0.597-1.313v1.313H31.101z
		 M29.339,24.924l0.003,0.068l0.005,0.063l0.007,0.058l0.013,0.053l0.012,0.051l0.018,0.045l0.023,0.043l0.025,0.035l0.013,0.018
		l0.015,0.015l0.012,0.015l0.018,0.013l0.015,0.012l0.018,0.013l0.018,0.01l0.02,0.01l0.04,0.015l0.043,0.01l0.048,0.008
		l0.051,0.003l0.048-0.003l0.048-0.008l0.043-0.01l0.04-0.015l0.017-0.01l0.018-0.01l0.018-0.013l0.018-0.012l0.015-0.013
		l0.015-0.015l0.015-0.015l0.013-0.018l0.023-0.035l0.023-0.043l0.018-0.045l0.012-0.051l0.013-0.053l0.008-0.058l0.005-0.063
		l0.003-0.068l-0.003-0.068l-0.005-0.063l-0.008-0.058l-0.013-0.053l-0.012-0.051l-0.018-0.045l-0.023-0.043l-0.023-0.035
		l-0.013-0.018l-0.015-0.015L30.02,24.46l-0.015-0.015l-0.018-0.012l-0.018-0.01l-0.018-0.01l-0.017-0.01l-0.04-0.015l-0.043-0.01
		l-0.048-0.008l-0.048-0.003l-0.051,0.003l-0.048,0.008l-0.043,0.01l-0.04,0.015l-0.02,0.01l-0.018,0.01l-0.018,0.013l-0.015,0.012
		l-0.018,0.012l-0.012,0.016l-0.015,0.015l-0.013,0.018l-0.025,0.038l-0.023,0.04l-0.018,0.045l-0.012,0.051l-0.013,0.055
		l-0.007,0.058l-0.005,0.063L29.339,24.924z M28.813,24.927v-0.053l0.005-0.053l0.005-0.051l0.005-0.051l0.01-0.048l0.01-0.045
		l0.013-0.046l0.015-0.042l0.015-0.04l0.02-0.04l0.02-0.04l0.02-0.035l0.025-0.035l0.025-0.036l0.03-0.033l0.031-0.03l0.03-0.031
		l0.033-0.027l0.036-0.025l0.038-0.023l0.038-0.023l0.038-0.02l0.043-0.018l0.04-0.017l0.046-0.013l0.045-0.012l0.048-0.01
		l0.048-0.01l0.051-0.005l0.053-0.005l0.053-0.002l0.055-0.003l0.053,0.003l0.055,0.002l0.051,0.005l0.051,0.005l0.048,0.01
		l0.048,0.01l0.045,0.012l0.046,0.013l0.04,0.017l0.042,0.018l0.038,0.02l0.038,0.023l0.038,0.023l0.035,0.025l0.033,0.027
		l0.03,0.031l0.03,0.03l0.028,0.033l0.028,0.036l0.023,0.035l0.023,0.035l0.02,0.04l0.02,0.04l0.015,0.04l0.015,0.042l0.013,0.046
		l0.01,0.045l0.01,0.048l0.005,0.051l0.005,0.051l0.003,0.053l0.002,0.053l-0.002,0.055l-0.003,0.051l-0.005,0.05l-0.005,0.051
		l-0.01,0.048l-0.01,0.045l-0.013,0.046l-0.015,0.043l-0.015,0.042l-0.02,0.04l-0.02,0.038l-0.023,0.038l-0.023,0.035l-0.028,0.035
		l-0.028,0.033l-0.03,0.03l-0.03,0.031l-0.033,0.027L30.35,25.69l-0.038,0.023l-0.038,0.023l-0.038,0.02l-0.042,0.018l-0.04,0.017
		l-0.046,0.013l-0.045,0.012l-0.048,0.01l-0.048,0.01l-0.051,0.005l-0.051,0.005l-0.055,0.005h-0.053H29.7l-0.053-0.005
		l-0.053-0.005l-0.051-0.005l-0.048-0.01l-0.048-0.01l-0.045-0.012l-0.043-0.013l-0.043-0.017l-0.04-0.018l-0.04-0.02l-0.038-0.023
		L29.16,25.69l-0.033-0.025l-0.035-0.027l-0.03-0.031l-0.031-0.03l-0.027-0.033l-0.028-0.035l-0.023-0.035l-0.023-0.038l-0.02-0.038
		l-0.02-0.04l-0.015-0.042l-0.015-0.043l-0.013-0.046l-0.01-0.045l-0.01-0.048l-0.005-0.051l-0.005-0.05l-0.005-0.051v-0.055H28.813
		z M27.999,25.822v-1.789h0.511v1.789H27.999z M26.635,25.822v-1.434h-0.56v-0.355h1.628v0.355h-0.557v1.434H26.635z M24.178,25.822
		l0.711-1.789h0.623l0.726,1.789h-0.569l-0.128-0.351h-0.724l-0.129,0.351H24.178z M25.416,25.129l-0.234-0.746l-0.257,0.746H25.416
		z M22.187,25.822v-1.789h0.726l0.585,1.273v-1.273h0.436v1.789h-0.703l-0.597-1.313v1.313H22.187z M20.34,25.822v-1.789h0.832
		l0.083,0.002l0.078,0.005l0.073,0.01l0.066,0.013l0.063,0.015l0.055,0.02l0.025,0.01l0.025,0.013l0.025,0.015l0.02,0.012
		l0.023,0.015l0.02,0.015l0.018,0.018l0.018,0.018l0.015,0.018l0.012,0.02l0.013,0.02l0.012,0.02l0.01,0.023l0.008,0.023
		l0.008,0.023l0.007,0.025l0.005,0.025l0.003,0.027l0.003,0.025v0.028l-0.003,0.048l-0.005,0.042l-0.007,0.04l-0.013,0.038
		l-0.015,0.038l-0.02,0.033l-0.023,0.033l-0.027,0.03l-0.03,0.025l-0.033,0.025l-0.035,0.023l-0.038,0.018l-0.043,0.015
		l-0.043,0.015l-0.048,0.01l-0.05,0.007v0.01h0.035l0.038,0.005l0.032,0.003l0.031,0.008l0.03,0.008l0.025,0.012l0.025,0.013
		l0.023,0.012l0.02,0.018l0.02,0.018l0.018,0.023l0.018,0.025l0.015,0.025l0.012,0.03l0.013,0.03l0.01,0.035l0.007,0.03l0.01,0.051
		l0.013,0.073l0.012,0.093l0.018,0.101l0.018,0.096l0.02,0.088l0.023,0.083h-0.549l-0.012-0.068l-0.01-0.07l-0.01-0.078l-0.01-0.081
		l-0.01-0.076l-0.008-0.061l-0.005-0.042l-0.005-0.028l-0.005-0.025L21.28,25.27l-0.008-0.02l-0.01-0.018l-0.01-0.018l-0.01-0.015
		l-0.012-0.013l-0.015-0.012l-0.015-0.01l-0.018-0.008l-0.018-0.008l-0.02-0.007l-0.023-0.005l-0.025-0.003l-0.028-0.003H21.04
		h-0.196v0.691L20.34,25.822L20.34,25.822z M20.844,24.803h0.202l0.042-0.003l0.038-0.002l0.035-0.003l0.033-0.005l0.028-0.008
		l0.025-0.008l0.023-0.01l0.02-0.013l0.016-0.012l0.012-0.018l0.012-0.018l0.01-0.02l0.008-0.023l0.005-0.025l0.005-0.028v-0.03
		v-0.028l-0.005-0.025l-0.005-0.023l-0.008-0.02l-0.01-0.02l-0.012-0.018l-0.012-0.015l-0.016-0.012l-0.02-0.013l-0.023-0.007
		l-0.023-0.01l-0.028-0.008l-0.03-0.005l-0.035-0.003l-0.035-0.002h-0.038h-0.214C20.844,24.368,20.844,24.803,20.844,24.803z
		 M18.667,25.822v-1.789h1.358v0.342h-0.859v0.366h0.819v0.34h-0.819v0.383h0.884v0.358C20.05,25.822,18.667,25.822,18.667,25.822z
		 M17.422,25.822v-1.434h-0.559v-0.355h1.628v0.355h-0.557v1.434H17.422z M14.821,25.847v-1.79h0.726l0.582,1.273v-1.273h0.439v1.79
		h-0.703l-0.599-1.313v1.313H14.821z M13.921,25.847v-1.79h0.512v1.79H13.921z M11.971,25.822v-1.434h-0.557v-0.355h1.626v0.355
		h-0.557v1.434H11.971z M9.516,25.822l0.711-1.789h0.62l0.728,1.789h-0.572l-0.126-0.351h-0.726l-0.126,0.351H9.516z M10.751,25.129
		l-0.232-0.746l-0.257,0.746H10.751z M7.788,25.847v-1.79H8.62l0.083,0.003l0.076,0.005l0.073,0.008l0.068,0.015l0.06,0.015
		l0.058,0.02l0.025,0.01l0.025,0.013l0.023,0.012l0.023,0.015l0.02,0.015l0.02,0.015l0.02,0.018l0.016,0.018l0.015,0.018l0.015,0.02
		l0.012,0.02l0.013,0.02l0.01,0.023l0.008,0.023l0.007,0.023l0.005,0.025L9.3,24.436l0.005,0.025l0.002,0.028v0.028l-0.002,0.045
		L9.3,24.607l-0.01,0.04l-0.01,0.038l-0.018,0.038l-0.018,0.033l-0.025,0.033l-0.025,0.027l-0.03,0.028l-0.033,0.025l-0.035,0.02
		l-0.038,0.02l-0.042,0.015L8.97,24.939l-0.048,0.01l-0.051,0.008v0.01h0.038l0.035,0.002l0.033,0.005l0.033,0.008l0.028,0.008
		l0.027,0.012l0.025,0.013l0.023,0.012l0.02,0.018l0.02,0.018l0.018,0.023l0.018,0.023l0.013,0.028l0.015,0.027l0.012,0.033
		l0.01,0.033l0.008,0.033l0.01,0.051l0.012,0.073l0.013,0.093l0.017,0.101l0.018,0.096l0.02,0.088l0.023,0.083H8.81L8.798,25.78
		l-0.01-0.073L8.775,25.63l-0.01-0.081l-0.007-0.075L8.75,25.413l-0.008-0.042l-0.005-0.028l-0.005-0.025l-0.007-0.023l-0.007-0.02
		l-0.008-0.02L8.7,25.239l-0.013-0.015l-0.012-0.015l-0.013-0.01l-0.015-0.01l-0.018-0.01l-0.017-0.005l-0.023-0.007l-0.023-0.005
		l-0.023-0.003l-0.027-0.003H8.488H8.291v0.691C8.291,25.847,7.788,25.847,7.788,25.847z M8.291,24.829h0.202l0.04-0.003l0.04-0.003
		l0.035-0.002l0.03-0.005l0.03-0.008l0.025-0.01l0.023-0.01l0.017-0.01l0.018-0.015l0.013-0.015l0.012-0.018l0.01-0.02l0.007-0.023
		L8.8,24.662l0.003-0.027l0.003-0.03l-0.003-0.028L8.8,24.551l-0.005-0.023l-0.007-0.02l-0.01-0.02L8.766,24.47l-0.013-0.015
		l-0.018-0.012L8.718,24.43l-0.023-0.01L8.67,24.412l-0.027-0.008L8.612,24.4l-0.033-0.003l-0.036-0.002l-0.04-0.003H8.291V24.829z
		 M5.532,25.822l0.71-1.789h0.62l0.728,1.789H7.019l-0.126-0.351H6.167l-0.126,0.351H5.532z M6.767,25.129l-0.232-0.746
		l-0.257,0.746H6.767z M4.937,24.045h0.499v1.152l-0.002,0.091l-0.005,0.076l-0.008,0.068l-0.01,0.055l-0.016,0.048l-0.02,0.048
		l-0.023,0.043l-0.025,0.04l-0.02,0.023l-0.02,0.025l-0.023,0.02l-0.023,0.02l-0.023,0.018L5.193,25.79l-0.027,0.015l-0.025,0.012
		l-0.03,0.013l-0.028,0.01l-0.03,0.01l-0.03,0.007L4.99,25.862l-0.033,0.002l-0.033,0.003L4.892,25.87l-0.043-0.003l-0.043-0.003
		l-0.04-0.005l-0.038-0.007l-0.038-0.01L4.652,25.83l-0.035-0.015l-0.033-0.018l-0.033-0.018l-0.033-0.023l-0.03-0.023l-0.03-0.025
		L4.431,25.68l-0.027-0.03l-0.025-0.03l-0.025-0.035l0.305-0.267l0.008,0.036l0.01,0.033l0.007,0.015l0.008,0.012l0.01,0.013
		l0.01,0.012l0.01,0.01l0.01,0.007l0.012,0.008l0.013,0.005l0.012,0.005l0.015,0.005h0.015l0.016,0.003l0.017-0.003l0.016-0.002
		l0.015-0.008l0.012-0.008l0.01-0.01l0.01-0.015l0.01-0.016l0.008-0.017l0.005-0.023l0.005-0.03l0.005-0.035l0.005-0.046
		l0.005-0.108v-0.139v-0.977H4.937z M2.644,24.032h0.519v1.066v0.048l0.005,0.046l0.007,0.04l0.008,0.038l0.013,0.038l0.018,0.031
		l0.018,0.03l0.02,0.028l0.025,0.023l0.025,0.02l0.03,0.018l0.033,0.012l0.033,0.01l0.038,0.007l0.04,0.005l0.043,0.002l0.043-0.002
		l0.04-0.005l0.04-0.007l0.036-0.01l0.032-0.015l0.031-0.017l0.027-0.02l0.025-0.025l0.023-0.027l0.02-0.031l0.015-0.03l0.015-0.036
		l0.01-0.038l0.008-0.04l0.005-0.045V25.1v-1.066h0.497v1.111l-0.003,0.043l-0.003,0.04l-0.005,0.04L4.37,25.305l-0.008,0.038
		l-0.01,0.035L4.34,25.413l-0.012,0.033l-0.015,0.033l-0.018,0.033l-0.02,0.028l-0.02,0.03l-0.023,0.025l-0.023,0.027l-0.028,0.025
		L4.153,25.67l-0.03,0.023l-0.03,0.02L4.06,25.731l-0.035,0.018L3.99,25.766l-0.038,0.015l-0.038,0.012l-0.043,0.013l-0.042,0.01
		l-0.043,0.01L3.74,25.834l-0.048,0.005l-0.048,0.005l-0.051,0.005L3.54,25.852H3.488H3.435l-0.05-0.003l-0.048-0.005l-0.045-0.005
		l-0.045-0.005l-0.045-0.008l-0.04-0.01l-0.04-0.01l-0.038-0.013l-0.038-0.015l-0.035-0.015l-0.033-0.015L2.945,25.73l-0.03-0.02
		l-0.03-0.02l-0.028-0.023l-0.025-0.025l-0.023-0.025l-0.023-0.025l-0.02-0.027l-0.02-0.031l-0.018-0.03l-0.015-0.033l-0.015-0.033
		l-0.01-0.035l-0.013-0.035L2.667,25.33l-0.008-0.04l-0.008-0.04l-0.002-0.04l-0.003-0.046l-0.003-0.042L2.644,24.032L2.644,24.032z
		 M2.304,25.761l-0.055,0.013l-0.055,0.01l-0.055,0.007l-0.055,0.01l-0.053,0.007l-0.05,0.008l-0.053,0.007l-0.05,0.005l-0.098,0.01
		l-0.096,0.008l-0.096,0.002l-0.091,0.003h-0.06l-0.06-0.003l-0.058-0.005L1.26,25.837l-0.053-0.008l-0.05-0.01l-0.05-0.01
		l-0.048-0.015l-0.045-0.015l-0.045-0.018l-0.04-0.018l-0.04-0.02L0.85,25.701l-0.038-0.023L0.779,25.65l-0.033-0.028l-0.03-0.027
		l-0.03-0.033l-0.025-0.033l-0.025-0.036l-0.023-0.035l-0.02-0.038l-0.02-0.04l-0.015-0.04l-0.015-0.045L0.53,25.252l-0.01-0.048
		l-0.01-0.048l-0.008-0.051l-0.005-0.053L0.494,25v-0.056v-0.055l0.003-0.055l0.005-0.053L0.51,24.73l0.01-0.051l0.01-0.048
		l0.013-0.045l0.015-0.046l0.018-0.043l0.02-0.04l0.02-0.04l0.023-0.038l0.025-0.035l0.025-0.036l0.03-0.033l0.03-0.03l0.033-0.03
		l0.035-0.025l0.035-0.025l0.04-0.025l0.04-0.02l0.04-0.02l0.045-0.018l0.045-0.017l0.045-0.013l0.05-0.012l0.05-0.01l0.053-0.01
		l0.056-0.005l0.055-0.005l0.058-0.002l0.06-0.003l0.101,0.003l0.093,0.007l0.043,0.005l0.043,0.005l0.04,0.007l0.04,0.008
		l0.038,0.01l0.035,0.01l0.035,0.01l0.033,0.012l0.03,0.015l0.028,0.013l0.028,0.018l0.028,0.015l0.023,0.018l0.023,0.02l0.023,0.02
		l0.02,0.023l0.018,0.023l0.018,0.023l0.015,0.025l0.013,0.028L2.27,24.35l0.01,0.028l0.01,0.03l0.008,0.033l0.008,0.03l0.005,0.036
		l0.003,0.035l0.003,0.035H1.795l-0.003-0.025l-0.005-0.025L1.78,24.503L1.77,24.48l-0.013-0.02l-0.015-0.017l-0.018-0.018
		l-0.018-0.018l-0.023-0.015L1.661,24.38l-0.023-0.01L1.61,24.36l-0.028-0.005L1.555,24.35l-0.03-0.002l-0.033-0.003l-0.055,0.003
		l-0.05,0.008L1.361,24.36l-0.025,0.008l-0.023,0.008l-0.02,0.008l-0.023,0.01l-0.02,0.012l-0.02,0.013L1.21,24.43l-0.018,0.015
		l-0.018,0.018L1.16,24.478l-0.018,0.02l-0.015,0.02l-0.013,0.02l-0.013,0.02l-0.013,0.023L1.066,24.63l-0.018,0.053l-0.013,0.055
		l-0.01,0.058L1.02,24.862l-0.003,0.066l0.003,0.07l0.005,0.066l0.01,0.063l0.015,0.058l0.01,0.025l0.01,0.025l0.01,0.025
		l0.013,0.023l0.013,0.023l0.015,0.023l0.015,0.02l0.018,0.018l0.018,0.018l0.018,0.018l0.02,0.015l0.02,0.015l0.02,0.013
		l0.023,0.012l0.025,0.01l0.025,0.01l0.025,0.008l0.028,0.008l0.028,0.008l0.028,0.005l0.06,0.008l0.066,0.003h0.033l0.033-0.003
		l0.035-0.003l0.033-0.002l0.035-0.005L1.765,25.5L1.8,25.489l0.035-0.007v-0.327h-0.38v-0.34h0.849V25.761z"/>
</g>
</svg>
